<svg width="18" height="18" viewBox="0 0 18 18" fill="none" xmlns="http://www.w3.org/2000/svg">
<g opacity="0.4" clip-path="url(#clip0_2574_9854)">
<path d="M16.5 7.4H1.5M12.3333 1V4.2M5.66667 1V4.2M5.5 17H12.5C13.9001 17 14.6002 17 15.135 16.7384C15.6054 16.5083 15.9878 16.1412 16.2275 15.6896C16.5 15.1762 16.5 14.5041 16.5 13.16V6.44C16.5 5.09587 16.5 4.42381 16.2275 3.91042C15.9878 3.45883 15.6054 3.09168 15.135 2.86158C14.6002 2.6 13.9001 2.6 12.5 2.6H5.5C4.09987 2.6 3.3998 2.6 2.86502 2.86158C2.39462 3.09168 2.01217 3.45883 1.77248 3.91042C1.5 4.42381 1.5 5.09587 1.5 6.44V13.16C1.5 14.5041 1.5 15.1762 1.77248 15.6896C2.01217 16.1412 2.39462 16.5083 2.86502 16.7384C3.3998 17 4.09987 17 5.5 17Z" stroke="black" stroke-width="1.4" stroke-linecap="round" stroke-linejoin="round"/>
</g>
<defs>
<clipPath id="clip0_2574_9854">
<rect width="18" height="18" fill="white"/>
</clipPath>
</defs>
</svg>
