<svg width="31" height="31" viewBox="0 0 31 31" fill="none" xmlns="http://www.w3.org/2000/svg">
<path d="M29.6512 10.1116V27.3645C29.6512 28.9711 28.3488 30.2734 26.7423 30.2734H8.80345C7.19689 30.2734 5.89453 28.9711 5.89453 27.3645V3.63548C5.89453 2.02893 7.19689 0.726562 8.80345 0.726562H20.8184L29.6512 10.1116Z" fill="#ED676A"/>
<path d="M29.6511 10.1115H22.7576C21.6866 10.1115 20.8184 9.24327 20.8184 8.17225V0.726562L29.6511 10.1115Z" fill="#E5252A"/>
<path d="M24.3939 25.8903H1.90664C1.599 25.8903 1.34961 25.6409 1.34961 25.3332V15.1417C1.34961 14.8341 1.599 14.5847 1.90664 14.5847H24.3939C24.7016 14.5847 24.951 14.8341 24.951 15.1417V25.3332C24.951 25.6409 24.7016 25.8903 24.3939 25.8903Z" fill="#E5252A"/>
<path d="M7.34198 23.1846C7.23214 23.1846 7.13363 23.1619 7.04463 23.1165C6.95563 23.071 6.91016 22.9991 6.91016 22.9006V17.5089C6.91016 17.4312 6.94043 17.3668 7.00297 17.3138C7.06546 17.2589 7.14689 17.2305 7.24347 17.2305H8.8324C9.16383 17.2305 9.46493 17.2911 9.73576 17.4066C10.0085 17.524 10.2225 17.7134 10.3797 17.9766C10.5369 18.2399 10.6164 18.5902 10.6164 19.0239V19.0883C10.6164 19.522 10.535 19.8723 10.3721 20.1356C10.2092 20.3988 9.98957 20.5901 9.71118 20.7094C9.43466 20.8287 9.12599 20.8893 8.78317 20.8893H7.7738V22.9005C7.7738 22.999 7.72833 23.0709 7.63932 23.1164C7.54838 23.1619 7.44987 23.1846 7.34198 23.1846ZM7.77374 20.2038H8.78311C9.08803 20.2038 9.32477 20.1167 9.49521 19.9444C9.66752 19.7701 9.75277 19.5031 9.75277 19.1471V19.0486C9.75277 18.6888 9.66752 18.4237 9.49521 18.2532C9.32477 18.0828 9.08803 17.9975 8.78311 17.9975H7.77374V20.2038Z" fill="white"/>
<path d="M11.739 23.1846C11.6254 23.1846 11.5326 23.1581 11.4625 23.1051C11.3905 23.0502 11.3564 22.9839 11.3564 22.9081V17.5089C11.3564 17.4312 11.3905 17.3668 11.4625 17.3138C11.5326 17.2589 11.6254 17.2305 11.739 17.2305H13.1802C13.523 17.2305 13.8336 17.2911 14.1139 17.4104C14.3923 17.5297 14.6119 17.7228 14.7729 17.988C14.9339 18.255 15.0134 18.6091 15.0134 19.0485V21.3704C15.0134 21.8098 14.9339 22.162 14.7729 22.4271C14.6119 22.6941 14.3923 22.8873 14.1139 23.0066C13.8336 23.1259 13.523 23.1846 13.1802 23.1846H11.739V23.1846ZM12.2201 22.4196H13.1802C13.4852 22.4196 13.7219 22.3343 13.8942 22.162C14.0646 21.9916 14.1499 21.7264 14.1499 21.3704V19.0486C14.1499 18.6887 14.0646 18.4236 13.8942 18.2532C13.7219 18.0827 13.4852 17.9975 13.1802 17.9975H12.2201V22.4196Z" fill="white"/>
<path d="M16.4572 23.1846C16.3474 23.1846 16.2489 23.1619 16.1599 23.1165C16.0709 23.071 16.0254 22.9991 16.0254 22.9006V17.5164C16.0254 17.4236 16.0652 17.3536 16.1466 17.3062C16.228 17.257 16.3152 17.2305 16.4079 17.2305H19.2676C19.3642 17.2305 19.4343 17.2721 19.4778 17.3536C19.5214 17.435 19.5441 17.5183 19.5441 17.6054C19.5441 17.7096 19.5214 17.8005 19.4741 17.8781C19.4286 17.9577 19.3586 17.9975 19.2677 17.9975H16.889V19.8629H18.1503C18.2432 19.8629 18.3132 19.897 18.3587 19.9689C18.4042 20.039 18.4287 20.1204 18.4287 20.2114C18.4287 20.289 18.406 20.3629 18.3624 20.4367C18.3189 20.5106 18.2488 20.5466 18.1503 20.5466H16.889V22.9006C16.889 22.999 16.8436 23.071 16.7546 23.1165C16.6637 23.1619 16.5652 23.1846 16.4572 23.1846Z" fill="white"/>
</svg>
